<svg width="20" height="20" viewBox="0 0 20 20" fill="none" xmlns="http://www.w3.org/2000/svg">
<g clip-path="url(#clip0_1665_365)">
<path d="M10.0078 19.2C8.91514 18.675 7.92652 18.1188 7.04197 17.5312C6.15742 16.9438 5.38343 16.3813 4.72002 15.8438C4.0566 15.3063 3.47449 14.6688 2.97368 13.9313C2.47286 13.1938 2.0566 12.5531 1.7249 12.0094C1.39319 11.4656 1.11677 10.75 0.895627 9.8625C0.674489 8.975 0.505383 8.24688 0.38831 7.67813C0.271237 7.10938 0.183432 6.29375 0.124895 5.23125C0.0663586 4.16875 0.0338383 3.3375 0.0273342 2.7375C0.0208302 2.1375 0.0175781 1.225 0.0175781 0C0.0175781 0.325 0.505383 0.60625 1.48099 0.84375C2.4566 1.08125 3.63384 1.2 5.0127 1.2C6.39156 1.2 7.5688 1.08125 8.54441 0.84375C9.52002 0.60625 10.0078 0.325 10.0078 0C10.0078 0.325 10.4956 0.60625 11.4712 0.84375C12.4468 1.08125 13.6241 1.2 15.0029 1.2C16.3818 1.2 17.559 1.08125 18.5347 0.84375C19.5103 0.60625 19.9981 0.325 19.9981 0C19.9981 1.225 19.9948 2.1375 19.9883 2.7375C19.9818 3.3375 19.9493 4.16875 19.8908 5.23125C19.8322 6.29375 19.7444 7.10938 19.6273 7.67813C19.5103 8.24688 19.3412 8.975 19.12 9.8625C18.8989 10.75 18.6225 11.4656 18.2908 12.0094C17.959 12.5531 17.5428 13.1938 17.042 13.9313C16.5412 14.6688 15.959 15.3063 15.2956 15.8438C14.6322 16.3813 13.8582 16.9438 12.9737 17.5312C12.0891 18.1188 11.1005 18.675 10.0078 19.2ZM10.0078 2.4C10.0078 2.725 9.64034 3.00625 8.90539 3.24375C8.17043 3.48125 7.28912 3.6 6.26148 3.6C5.55904 3.6 4.86311 3.54375 4.17368 3.43125C3.48425 3.31875 2.9314 3.16875 2.51514 2.98125C2.51514 3.96875 2.52815 4.7625 2.55416 5.3625C2.58018 5.9625 2.64197 6.67813 2.73953 7.50938C2.83709 8.34063 2.98343 9.025 3.17855 9.5625C3.37368 10.1 3.65335 10.7063 4.01758 11.3813C4.38181 12.0563 4.82734 12.6438 5.35416 13.1438C5.88099 13.6438 6.53465 14.1625 7.31514 14.7C8.09563 15.2375 8.99319 15.7375 10.0078 16.2V2.4Z" fill="white"/>
</g>
<defs>
<clipPath id="clip0_1665_365">
<rect width="20" height="19.2" fill="white"/>
</clipPath>
</defs>
</svg>
