<svg width="16" height="16" viewBox="0 0 16 16" fill="none" xmlns="http://www.w3.org/2000/svg">
<path d="M5.48096 9.247C5.37146 9.847 4.93746 12.644 4.80896 13.4345C4.79946 13.491 4.77746 13.5125 4.71496 13.5125H2.38396C2.32927 13.5129 2.27514 13.5014 2.22529 13.4789C2.17543 13.4564 2.13104 13.4234 2.09514 13.3821C2.05924 13.3408 2.03268 13.2923 2.01729 13.2398C2.0019 13.1873 1.99803 13.1321 2.00596 13.078L3.83746 1.456C3.86269 1.30844 3.93923 1.17453 4.05359 1.07792C4.16795 0.981315 4.31276 0.928215 4.46246 0.927998C9.22196 0.927998 9.62196 0.812498 10.8375 1.2845C12.7155 2.0125 12.8875 3.769 12.2125 5.669C11.5405 7.6255 9.94696 8.466 7.83446 8.491C6.47846 8.513 5.66246 8.272 5.48146 9.247H5.48096ZM13.1595 4.75C13.103 4.7095 13.0815 4.6935 13.0655 4.7905C12.9998 5.1468 12.9079 5.49776 12.7905 5.8405C11.5435 9.397 8.08746 9.0875 6.39996 9.0875C6.20946 9.0875 6.08446 9.1905 6.05946 9.381C5.35346 13.7685 5.21246 14.684 5.21246 14.684C5.18096 14.906 5.32196 15.087 5.54346 15.087H7.52796C7.79696 15.087 8.01846 14.89 8.07196 14.6215C8.09396 14.453 8.03746 14.812 8.52196 11.7685C8.66596 11.081 8.96896 11.153 9.43746 11.153C11.6565 11.153 13.3875 10.253 13.903 7.6435C14.106 6.556 14.047 5.412 13.1595 4.7495V4.75Z" fill="white"/>
</svg>
